<svg id="Capa_1" enable-background="new 0 0 512 512" height="512" viewBox="0 0 512 512" width="512" xmlns="http://www.w3.org/2000/svg"><g><g><path d="m334.711 477.6h-157.422l17.806-66.927h121.81z" fill="#cac0c9"/><path d="m321.849 429.254-4.944-18.581h-121.81l-4.944 18.581z" fill="#bbb0ba"/><path d="m0 379.677c0 17.119 13.878 30.996 30.996 30.996h450.007c17.119 0 30.996-13.878 30.996-30.996v-39.817h-511.999z" fill="#e6e2e6"/><path d="m481.004 392.092h-450.008c-17.118 0-30.996-13.877-30.996-30.996v18.581c0 17.119 13.878 30.996 30.996 30.996h450.007c17.119 0 30.996-13.878 30.996-30.996v-18.581c.001 17.119-13.877 30.996-30.995 30.996z" fill="#d8d1d7"/><path d="m481.004 27.114h-450.008c-17.118 0-30.996 13.877-30.996 30.996v281.75h512v-281.75c0-17.119-13.878-30.996-30.996-30.996z" fill="#ffc265"/><path d="m0 321.279h512v18.581h-512z" fill="#ffb541"/><path d="m366.586 484.886h-221.173c-4.267 0-7.727-3.459-7.727-7.727s3.459-7.727 7.727-7.727h221.173c4.267 0 7.727 3.459 7.727 7.727s-3.46 7.727-7.727 7.727z" fill="#8c808a"/></g><circle cx="255.856" cy="185.139" fill="#ff4755" r="100.405"/><path d="m255.856 266.963c-52.319 0-95.284-40.019-99.973-91.115-.281 3.06-.432 6.157-.432 9.29 0 55.452 44.953 100.405 100.405 100.405s100.405-44.953 100.405-100.405c0-3.133-.151-6.23-.432-9.29-4.689 51.096-47.654 91.115-99.973 91.115z" fill="#fc2b3a"/><path d="m236.671 234.259 63.452-40.186c4.634-2.935 4.634-9.696 0-12.631l-63.452-40.187c-4.977-3.152-11.475.424-11.475 6.315v80.373c0 5.893 6.498 9.469 11.475 6.316z" fill="#e6e2e6"/><path d="m300.124 181.442-4.697-2.975-58.755 37.212c-4.977 3.152-11.475-.424-11.475-6.315v18.581c0 5.891 6.498 9.468 11.475 6.315l63.452-40.186c4.634-2.936 4.634-9.697 0-12.632z" fill="#d8d1d7"/></g></svg>