<svg id="Layer_1" enable-background="new 0 0 512 512" height="512" viewBox="0 0 512 512" width="512" xmlns="http://www.w3.org/2000/svg"><g><path d="m512 256c0 49.613-14.113 95.929-38.543 135.153-45.191 72.557-125.685 101.079-217.457 101.079-141.385 0-243.264-95.557-243.264-236.942 0-50.727 2.018-97.298 27.469-137.076 45.486-71.089 125.137-118.214 215.795-118.214 141.385 0 256 114.615 256 256z" fill="#62c389"/><path d="m473.006 199.546c-4.391-2.494-9.24-5.017-14.477-7.406-11.903-5.43-15.94-20.396-8.494-31.153.098-.142.196-.283.292-.424 4.594-6.684.896-15.909-7.056-17.511-.783-.158-1.59-.314-2.42-.468-12.989-2.406-20.765-15.976-16-28.296 2.341-6.052 4.213-11.905 5.706-17.328 4.268-15.511-10.027-29.846-25.538-25.581-4.867 1.338-10.081 2.98-15.475 4.992-12.296 4.585-25.781-3.079-28.13-15.99-.031-.17-.062-.338-.093-.506-1.478-7.975-10.615-11.881-17.37-7.391-.669.445-1.355.908-2.056 1.39-10.967 7.54-25.996 3.227-31.403-8.935-2.604-5.856-5.39-11.25-8.14-16.084-7.972-14.019-28.24-13.904-36.201.121-2.487 4.38-5.003 9.217-7.385 14.439-5.43 11.904-20.399 15.94-31.158 8.494-.142-.098-.283-.196-.424-.292-6.684-4.594-15.905-.894-17.507 7.057-.157.777-.312 1.579-.465 2.403-2.41 12.997-15.982 20.781-28.311 16.014-6.049-2.339-11.897-4.21-17.317-5.701-15.51-4.268-29.846 10.028-25.581 25.539 1.338 4.867 2.98 10.081 4.992 15.476 4.585 12.295-3.079 25.78-15.989 28.129-.17.031-.339.062-.506.093-7.975 1.478-11.881 10.616-7.392 17.371 4.611 6.938 11.216 15.677 19.786 24.136-.81.192-1.626.394-2.447.605-20.225 5.223-38.766-13.117-33.162-33.24.213-.766.43-1.531.651-2.295 11.305-39.172-41.751-63.327-63.727-28.986-25.454 39.774-40.209 87.054-40.209 137.782 0 52.73 15.949 101.731 43.276 142.457 25.777 37.165 42.137 47.509 51.141 56.098 44.069 35.906 100.307 57.445 161.583 57.445 36.938 0 72.04-7.836 103.754-21.921.003.001.007.001.01.002 12.031-5.335 24.737-12.186 36.613-19.988-.005.001-.011.002-.017.003 31.058-20.403 57.413-47.375 77.08-78.952-4.199-31.991-11.137-64.972-22.599-89.283-2.115-4.486-2.045-9.583-.251-14.207 1.258-3.243 1.04-7.064-1.136-10.337-.046-.069-.092-.139-.139-.209-7.97-11.948-3.396-28.133 9.655-34.13 5.12-2.352 9.864-4.83 14.165-7.278 13.999-7.965 13.875-28.2-.129-36.154zm-336.359 53.094c-6.05 5.995-11.085 12.075-15.09 17.477-1.808 2.438-4.403 4.144-7.344 4.896-.059.015-.118.03-.177.046-7.253 1.87-14.539-2.921-15.89-10.288-1.779-9.705-3.011-19.601-3.663-29.656 8.041 5.164 25.803 13.372 42.164 17.525zm70.786 161.891c6.528-8.724 11.741-19.132 14.752-30.473.406-.148.808-.313 1.205-.511 3.846 25.302 15.503 49.646 34.988 69.131 3.044 3.044 6.581 5.884 10.53 8.537-20.734-6.912-40.284-16.405-58.276-28.097-6.281-4.083-7.688-12.59-3.199-18.587z" fill="#199a8e"/><g><g><g><path d="m185.119 436.866c-25.87 25.87-101.073 31.283-137.75 32.361-11.392.335-20.703-8.977-20.368-20.368 1.078-36.677 6.49-111.88 32.361-137.75 34.727-34.727 91.031-34.727 125.758 0s34.726 91.03-.001 125.757z" fill="#a0c83d"/></g><g><path d="m93.766 412.109c-2.469 0-4.937-.942-6.822-2.825-3.767-3.767-3.767-9.876 0-13.643l120.86-120.861c3.768-3.766 9.875-3.766 13.643 0 3.767 3.767 3.767 9.876 0 13.643l-120.86 120.861c-1.884 1.883-4.352 2.825-6.821 2.825z" fill="#489160"/></g></g><g><g><path d="m420.174 289.678c36.17 36.17 43.737 141.313 45.244 192.593.468 15.927-12.55 28.946-28.477 28.477-51.28-1.507-156.423-9.074-192.593-45.244-48.553-48.553-48.553-127.273 0-175.826s127.273-48.553 175.826 0z" fill="#489160"/></g><g><path d="m372.072 430.801c-3.429 0-6.858-1.308-9.474-3.924l-168.979-168.979c-5.233-5.233-5.233-13.715 0-18.948 5.232-5.232 13.717-5.232 18.948 0l168.979 168.979c5.233 5.233 5.233 13.715 0 18.948-2.616 2.615-6.045 3.924-9.474 3.924z" fill="#a0c83d"/></g></g><g><g><path d="m160.06 285.568c38.328-38.328 81.736-57.061 96.955-41.842s-3.514 58.627-41.842 96.955c-20.095 20.095-45.77 30.62-65.65 36.087-15.53 4.27-29.82-10.02-25.55-25.55 5.467-19.88 15.992-45.555 36.087-65.65z" fill="#ffe046"/></g><g><path d="m325.335 120.293c-38.328 38.328-57.061 81.736-41.842 96.955s58.627-3.514 96.955-41.842c20.095-20.095 30.62-45.77 36.087-65.65 4.27-15.53-10.02-29.82-25.55-25.55-19.88 5.467-45.555 15.992-65.65 36.087z" fill="#ffe046"/></g><g><g><path d="m309.225 347.354c0-54.204-17.448-98.145-38.971-98.145s-38.971 43.941-38.971 98.145c0 28.419 10.712 54.016 20.904 71.939 7.962 14.001 28.171 14.001 36.133 0 10.192-17.923 20.905-43.52 20.905-71.939z" fill="#ffe046"/></g><g><path d="m258.537 341.217c17.543-41.455 18.421-80.707 1.96-87.673s-44.026 20.993-61.569 62.447c-11.279 26.652-8.865 55.273-5.703 72.315 1.482 7.99 10.606 11.851 17.373 7.352 14.434-9.595 36.66-27.789 47.939-54.441z" fill="#fcb54c"/></g></g><g><g><path d="m309.225 113.62c0 54.204-17.448 98.145-38.971 98.145s-38.971-43.941-38.971-98.145c0-28.419 10.712-54.016 20.904-71.939 7.962-14.001 28.171-14.001 36.133 0 10.192 17.923 20.905 43.52 20.905 71.939z" fill="#ffe046"/></g><g><path d="m341.58 144.983c-17.543 41.455-45.108 69.413-61.569 62.447s-15.583-46.218 1.96-87.673c11.279-26.652 33.504-44.846 47.939-54.441 6.767-4.499 15.891-.638 17.373 7.352 3.162 17.042 5.576 45.663-5.703 72.315z" fill="#fcb54c"/></g></g><g><g><path d="m380.448 285.568c-38.328-38.328-81.736-57.061-96.955-41.842s3.514 58.627 41.842 96.955c20.095 20.095 45.77 30.62 65.65 36.087 15.53 4.27 29.82-10.02 25.55-25.55-5.467-19.88-15.992-45.555-36.087-65.65z" fill="#ffe046"/></g><g><path d="m340.266 317.07c-16.908-41.718-44.043-70.094-60.608-63.38s-16.287 45.975.621 87.693c10.871 26.821 32.816 45.353 47.102 55.167 6.698 4.601 15.879.88 17.484-7.086 3.421-16.992 6.272-45.573-4.599-72.394z" fill="#fcb54c"/></g></g><g><g><path d="m215.173 120.293c38.328 38.328 57.061 81.736 41.842 96.955s-58.627-3.514-96.955-41.842c-20.095-20.095-30.62-45.77-36.087-65.65-4.27-15.53 10.02-29.82 25.55-25.55 19.88 5.467 45.555 15.992 65.65 36.087z" fill="#ffe046"/></g><g><path d="m260.229 119.591c16.908 41.718 17.186 80.979.621 87.693s-43.7-21.662-60.608-63.38c-10.871-26.821-8.02-55.402-4.598-72.394 1.604-7.966 10.786-11.687 17.484-7.086 14.285 9.815 36.231 28.346 47.101 55.167z" fill="#fcb54c"/></g></g><g><g><path d="m387.121 191.516c-54.204 0-98.145 17.448-98.145 38.971s43.941 38.971 98.145 38.971c28.419 0 54.016-10.712 71.939-20.904 14.001-7.962 14.001-28.171 0-36.133-17.923-10.192-43.52-20.905-71.939-20.905z" fill="#ffe046"/></g><g><path d="m380.984 242.204c-41.455-17.543-80.707-18.421-87.673-1.96s20.993 44.026 62.447 61.569c26.652 11.279 55.273 8.865 72.315 5.703 7.99-1.482 11.851-10.606 7.352-17.373-9.595-14.435-27.789-36.66-54.441-47.939z" fill="#fcb54c"/></g></g><g><g><path d="m153.387 191.516c54.204 0 98.145 17.448 98.145 38.971s-43.941 38.971-98.145 38.971c-28.419 0-54.016-10.712-71.939-20.904-14.001-7.962-14.001-28.171 0-36.133 17.923-10.192 43.52-20.905 71.939-20.905z" fill="#ffe046"/></g><g><path d="m184.75 159.161c41.455 17.543 69.413 45.108 62.447 61.569s-46.218 15.583-87.673-1.96c-26.652-11.279-44.846-33.504-54.441-47.939-4.499-6.767-.638-15.891 7.352-17.373 17.042-3.162 45.663-5.576 72.315 5.703z" fill="#fcb54c"/></g></g><g><path d="m356.837 160.475c-41.718 16.908-70.094 44.043-63.38 60.608s45.975 16.287 87.693-.621c26.821-10.871 45.353-32.816 55.167-47.102 4.601-6.698.88-15.879-7.086-17.484-16.992-3.421-45.573-6.272-72.394 4.599z" fill="#fcb54c"/></g><g><path d="m159.358 240.512c41.718-16.908 80.979-17.186 87.693-.621s-21.662 43.7-63.38 60.608c-26.821 10.871-55.402 8.02-72.394 4.598-7.966-1.604-11.687-10.786-7.086-17.484 9.815-14.285 28.346-36.231 55.167-47.101z" fill="#fcb54c"/></g><g><path d="m357.289 230.487c0 27.169-12.449 51.431-31.954 67.391-15.004 12.277-33.9 12.275-54.799 12.275-48.068 0-79.948-31.316-79.948-79.384 0-28.31 6.148-53.746 27.08-69.64 14.608-11.093 32.828-17.676 52.586-17.676 48.068-.001 87.035 38.966 87.035 87.034z" fill="#a55a3c"/></g><g><path d="m320.719 287.287c-48.888-.11-87.68-39.709-86.824-88.589.145-8.299 1.452-16.314 3.765-23.89 3.608-11.82-10.146-21.149-19.99-13.676-21.496 16.32-35.173 42.402-34.422 71.644 1.178 45.883 38.417 83.309 84.293 84.704 21.95.667 42.142-6.796 57.792-19.604 4.374-3.579 1.825-10.629-3.827-10.591-.261.002-.524.003-.787.002z" fill="#783c28"/></g></g></g></g></svg>